<svg width="87" height="87" viewBox="0 0 87 87" fill="none" xmlns="http://www.w3.org/2000/svg">
<path d="M83.8585 3.06602C82.4153 1.73975 80.4988 1 78.506 1C76.5132 1 74.5967 1.73975 73.1535 3.06602L53.5269 22.0083L7.13732 11.6766L0.000995728 18.564L37.4689 37.5061L17.8423 56.4484L5.35199 54.7262L0 59.8925L16.058 68.5021L24.9786 84L30.3316 78.8338L28.5473 66.78L48.1739 47.8378L67.8005 84L74.9378 77.1116L64.2328 32.3399L83.8595 13.3977C85.2337 12.0048 86.0002 10.1551 86 8.23167C85.9998 6.30829 85.233 4.45867 83.8585 3.06602Z" fill="white"/>
</svg>
