<svg width="95" height="93" viewBox="0 0 95 93" fill="none" xmlns="http://www.w3.org/2000/svg">
<path d="M82.6023 70.1017C82.6023 70.4025 82.7038 70.8009 82.9031 71.1017L87.2039 78.0001C87.9031 79.1993 89.6023 79.1993 90.3055 78.0001L94.6063 71.1017C94.8055 70.8009 94.9071 70.5001 94.9071 70.1017V67.2033L82.6021 67.1994L82.6023 70.1017Z" fill="white"/>
<path d="M93.1023 21.3977H84.5007C83.5007 21.3977 82.6023 22.1985 82.6023 23.2961V28.5969H95.0003V23.2961C95.0003 22.1984 94.1995 21.3977 93.1019 21.3977H93.1023Z" fill="white"/>
<path d="M82.6023 33.8007H95.0003V61.9027H82.6023V33.8007Z" fill="white"/>
<path d="M68.8982 7.3007H60.4998V1.8984C60.4998 0.8984 59.699 0 58.6014 0H52.4998C51.4998 0 50.6014 0.80078 50.6014 1.8984V7.2968H41.4022L41.3983 1.8984C41.3983 0.8984 40.5975 0 39.4999 0H33.3983C32.3983 0 31.4999 0.80078 31.4999 1.8984V7.2968H22.3007V1.8984C22.3007 0.8984 21.4999 0 20.4023 0H14.3007C13.3007 0 12.4023 0.80078 12.4023 1.8984V7.2968L4.5 7.30071C2 7.30071 0 9.30071 0 11.8007V88.4997C0 90.9997 2 92.9997 4.5 92.9997H69C71.5 92.9997 73.5 90.9997 73.5 88.4997V11.8007C73.3984 9.30071 71.3984 7.30071 68.8984 7.30071L68.8982 7.3007ZM18.3002 77.8987H15.4994C14.101 77.8987 12.8978 76.6995 12.8978 75.2971C12.8978 73.8987 14.097 72.6955 15.4994 72.6955H18.3002C19.6986 72.6955 20.9018 73.8947 20.9018 75.2971C20.8979 76.6994 19.6987 77.8987 18.3002 77.8987ZM18.3002 61.1017H15.4994C14.101 61.1017 12.8978 59.9025 12.8978 58.5001C12.8978 57.1017 14.097 55.8985 15.4994 55.8985H18.3002C19.6986 55.8985 20.9018 57.0977 20.9018 58.5001C20.8979 59.8985 19.6987 61.1017 18.3002 61.1017ZM18.3002 44.3987H15.4994C14.101 44.3987 12.8978 43.1995 12.8978 41.7971C12.8978 40.3987 14.097 39.1955 15.4994 39.1955H18.3002C19.6986 39.1955 20.9018 40.3947 20.9018 41.7971C20.8979 43.1994 19.6987 44.3987 18.3002 44.3987ZM18.3002 27.6017H15.4994C14.101 27.6017 12.8978 26.4025 12.8978 25.0001C12.8978 23.6017 14.097 22.3985 15.4994 22.3985H18.3002C19.6986 22.3985 20.9018 23.5977 20.9018 25.0001C20.8979 26.5001 19.6987 27.6017 18.3002 27.6017ZM57.8982 77.8987H29.8982C28.4998 77.8987 27.2966 76.6995 27.2966 75.2971C27.2966 73.8987 28.4958 72.6955 29.8982 72.6955H57.8982C59.2966 72.6955 60.4998 73.8947 60.4998 75.2971C60.4998 76.6995 59.3006 77.8987 57.8982 77.8987ZM57.8982 61.1017H29.8982C28.4998 61.1017 27.2966 59.9025 27.2966 58.5001C27.2966 57.1017 28.4958 55.8985 29.8982 55.8985H57.8982C59.2966 55.8985 60.4998 57.0977 60.4998 58.5001C60.4998 59.8985 59.3006 61.1017 57.8982 61.1017ZM57.8982 44.3987H29.8982C28.4998 44.3987 27.2966 43.1995 27.2966 41.7971C27.2966 40.3987 28.4958 39.1955 29.8982 39.1955H57.8982C59.2966 39.1955 60.4998 40.3947 60.4998 41.7971C60.4998 43.1995 59.3006 44.3987 57.8982 44.3987ZM57.8982 27.6017H29.8982C28.4998 27.6017 27.2966 26.4025 27.2966 25.0001C27.2966 23.6017 28.4958 22.3985 29.8982 22.3985H57.8982C59.2966 22.3985 60.4998 23.5977 60.4998 25.0001C60.4998 26.5001 59.3006 27.6017 57.8982 27.6017Z" fill="white"/>
</svg>
