<svg width="215" height="50" viewBox="0 0 215 50" fill="none" xmlns="http://www.w3.org/2000/svg">
<path d="M13.888 25.02C13.6 27.204 13.456 28.896 13.456 30.096C13.456 31.296 13.828 31.896 14.572 31.896C15.316 31.896 16.192 31.344 17.2 30.24C18.232 29.136 19.192 27.624 20.08 25.704C20.968 23.784 21.508 21.84 21.7 19.872C21.7 17.88 20.68 15.612 18.64 13.068C19.12 12.036 19.744 11.112 20.512 10.296C21.28 9.456 21.928 8.88 22.456 8.568L23.248 8.064C24.136 8.064 24.892 8.712 25.516 10.008C26.164 11.28 26.488 12.696 26.488 14.256C26.488 16.944 25.708 20.04 24.148 23.544C22.588 27.048 20.644 30.072 18.316 32.616C15.988 35.16 13.84 36.432 11.872 36.432C10.6 36.432 9.604 35.976 8.884 35.064C8.188 34.128 7.84 33.012 7.84 31.716C7.84 30.42 7.996 28.296 8.308 25.344C6.076 25.128 4.228 24.372 2.764 23.076C1.324 21.756 0.604 20.148 0.604 18.252C0.604 16.332 1.492 14.556 3.268 12.924C5.068 11.268 7.12 10.44 9.424 10.44C12.952 10.44 14.716 12.636 14.716 17.028C14.716 18.132 14.632 19.26 14.464 20.412L14.212 22.536C15.412 22.248 16.372 21.9 17.092 21.492L17.488 21.276C17.992 21.78 18.256 22.548 18.28 23.58C16.792 24.276 15.328 24.756 13.888 25.02ZM9.1 17.064C9.1 15.816 8.968 14.928 8.704 14.4C8.44 13.848 7.912 13.572 7.12 13.572C6.352 13.572 5.44 14.028 4.384 14.94C3.352 15.828 2.836 16.944 2.836 18.288C2.836 19.608 3.388 20.724 4.492 21.636C5.62 22.524 6.976 22.968 8.56 22.968C8.92 20.28 9.1 18.312 9.1 17.064ZM33.4031 22.284C33.4031 23.292 33.0791 25.032 32.4311 27.504C31.7831 29.952 31.4591 31.56 31.4591 32.328C31.4591 33.072 31.5671 33.444 31.7831 33.444C31.9271 33.444 32.4791 33.216 33.4391 32.76L33.8711 32.544L34.4831 33.804C34.2671 33.996 33.9791 34.236 33.6191 34.524C33.2591 34.812 32.5871 35.208 31.6031 35.712C30.6191 36.192 29.7071 36.432 28.8671 36.432C28.0271 36.432 27.3671 36.18 26.8871 35.676C26.4071 35.148 26.1671 34.452 26.1671 33.588C26.1671 32.7 26.4671 31.14 27.0671 28.908C27.6671 26.652 27.9671 25.188 27.9671 24.516C27.9671 23.508 27.6551 22.56 27.0311 21.672L26.7071 21.24L26.7431 20.772C28.0151 20.412 30.0791 20.232 32.9351 20.232C33.2471 20.592 33.4031 21.276 33.4031 22.284ZM29.2991 16.308C28.8191 15.828 28.5791 15.192 28.5791 14.4C28.5791 13.608 28.9031 12.912 29.5511 12.312C30.2231 11.712 30.9911 11.412 31.8551 11.412C32.7191 11.412 33.3911 11.652 33.8711 12.132C34.3511 12.612 34.5911 13.248 34.5911 14.04C34.5911 14.808 34.2431 15.492 33.5471 16.092C32.8751 16.692 32.1191 16.992 31.2791 16.992C30.4391 16.992 29.7791 16.764 29.2991 16.308ZM46.8837 31.284C46.8837 32.796 46.2117 34.032 44.8677 34.992C43.5477 35.952 42.0357 36.432 40.3317 36.432C38.6277 36.432 37.2717 36.072 36.2637 35.352C35.2797 34.632 34.7877 33.996 34.7877 33.444C34.7877 33.108 35.2077 32.568 36.0477 31.824C36.8877 31.056 37.5957 30.588 38.1717 30.42C39.3717 31.308 40.3557 32.712 41.1237 34.632C42.0117 34.56 42.4557 34.14 42.4557 33.372C42.4557 32.268 41.4837 30.708 39.5397 28.692C37.5957 26.652 36.6237 25.032 36.6237 23.832C36.6237 22.632 37.1637 21.708 38.2437 21.06C39.3237 20.388 40.6197 20.052 42.1317 20.052C43.6677 20.052 44.8197 20.328 45.5877 20.88C46.3557 21.408 46.7397 22.14 46.7397 23.076C46.7397 23.988 46.0077 25.26 44.5437 26.892C44.7117 27.06 44.9277 27.288 45.1917 27.576C45.4557 27.84 45.8037 28.356 46.2357 29.124C46.6677 29.892 46.8837 30.612 46.8837 31.284ZM43.4277 25.632C44.4357 24.768 44.9397 23.916 44.9397 23.076C44.9397 22.236 44.3637 21.816 43.2117 21.816C42.6597 21.816 42.2037 21.936 41.8437 22.176C41.4837 22.392 41.3037 22.644 41.3037 22.932C41.3037 23.46 41.8317 24.204 42.8877 25.164L43.4277 25.632ZM56.0086 22.284C56.0086 23.292 55.6846 25.032 55.0366 27.504C54.3886 29.952 54.0646 31.56 54.0646 32.328C54.0646 33.072 54.1726 33.444 54.3886 33.444C54.5326 33.444 55.0846 33.216 56.0446 32.76L56.4766 32.544L57.0886 33.804C56.8726 33.996 56.5846 34.236 56.2246 34.524C55.8646 34.812 55.1926 35.208 54.2086 35.712C53.2246 36.192 52.3126 36.432 51.4726 36.432C50.6326 36.432 49.9726 36.18 49.4926 35.676C49.0126 35.148 48.7726 34.452 48.7726 33.588C48.7726 32.7 49.0726 31.14 49.6726 28.908C50.2726 26.652 50.5726 25.188 50.5726 24.516C50.5726 23.508 50.2606 22.56 49.6366 21.672L49.3126 21.24L49.3486 20.772C50.6206 20.412 52.6846 20.232 55.5406 20.232C55.8526 20.592 56.0086 21.276 56.0086 22.284ZM51.9046 16.308C51.4246 15.828 51.1846 15.192 51.1846 14.4C51.1846 13.608 51.5086 12.912 52.1566 12.312C52.8286 11.712 53.5966 11.412 54.4606 11.412C55.3246 11.412 55.9966 11.652 56.4766 12.132C56.9566 12.612 57.1966 13.248 57.1966 14.04C57.1966 14.808 56.8486 15.492 56.1526 16.092C55.4806 16.692 54.7246 16.992 53.8846 16.992C53.0446 16.992 52.3846 16.764 51.9046 16.308ZM69.6332 20.484C69.5852 21.084 69.3812 21.78 69.0212 22.572C68.1092 22.476 67.2452 22.428 66.4292 22.428H65.7812C64.6772 27.78 64.1252 31.116 64.1252 32.436C64.1252 33.132 64.2692 33.48 64.5572 33.48C64.8692 33.48 65.6732 33.18 66.9692 32.58L67.6172 33.768C65.4812 35.544 63.5012 36.432 61.6772 36.432C60.8372 36.432 60.1412 36.168 59.5892 35.64C59.0612 35.112 58.7972 34.416 58.7972 33.552C58.7972 32.664 58.8932 31.668 59.0852 30.564C59.3012 29.46 59.5892 28.116 59.9492 26.532C60.3092 24.924 60.5732 23.628 60.7412 22.644C59.8532 22.716 59.1932 22.788 58.7612 22.86C58.7132 22.572 58.6892 22.188 58.6892 21.708C58.6892 21.204 58.7252 20.796 58.7972 20.484H61.0652C61.2572 19.188 61.3532 17.964 61.3532 16.812L61.3172 15.696V15.588C63.1892 14.94 64.9532 14.616 66.6092 14.616C66.7052 15.096 66.7532 15.696 66.7532 16.416C66.7532 17.136 66.5492 18.492 66.1412 20.484H69.6332ZM84.8294 36.432C82.4534 36.432 80.5334 35.544 79.0694 33.768C77.6054 31.968 76.8734 29.592 76.8734 26.64C76.8734 23.688 77.3774 21.012 78.3854 18.612C79.4174 16.188 80.8814 14.22 82.7774 12.708C84.6734 11.196 86.7734 10.44 89.0774 10.44C89.9414 10.44 90.7094 10.572 91.3814 10.836C93.1094 9.684 94.8974 9.108 96.7454 9.108C97.6094 9.108 98.4134 9.24 99.1574 9.504C99.9254 9.744 100.489 10.044 100.849 10.404C100.657 11.22 100.345 11.964 99.9134 12.636C98.7854 11.796 97.6454 11.376 96.4934 11.376C95.3414 11.376 94.2854 11.604 93.3254 12.06C94.4534 13.26 95.0174 14.964 95.0174 17.172C95.0174 19.356 94.4414 21.348 93.2894 23.148C92.1374 24.948 90.6974 25.848 88.9694 25.848C87.9374 25.848 87.0974 25.416 86.4494 24.552C85.8254 23.688 85.5134 22.608 85.5134 21.312C85.5134 18.192 86.6774 15.372 89.0054 12.852C87.1094 12.924 85.5734 14.172 84.3974 16.596C83.2214 18.996 82.6334 21.9 82.6334 25.308C82.6334 30.276 84.0734 32.76 86.9534 32.76C88.9214 32.76 91.0214 31.536 93.2534 29.088L94.5134 30.132C94.2014 30.684 93.6854 31.368 92.9654 32.184C92.2694 33 91.5734 33.684 90.8774 34.236C90.1814 34.788 89.2814 35.292 88.1774 35.748C87.0734 36.204 85.9574 36.432 84.8294 36.432ZM92.5334 17.532C92.5334 15.564 92.0894 14.22 91.2014 13.5C90.1454 14.436 89.2934 15.576 88.6454 16.92C88.0214 18.264 87.7094 19.656 87.7094 21.096C87.7094 21.84 87.8414 22.452 88.1054 22.932C88.3934 23.412 88.7534 23.652 89.1854 23.652C90.1214 23.652 90.9134 22.992 91.5614 21.672C92.2094 20.352 92.5334 18.972 92.5334 17.532ZM106.535 21.096C106.583 21.048 106.715 20.736 106.931 20.16C108.059 20.16 109.571 20.496 111.467 21.168C110.867 23.16 110.387 25.248 110.027 27.432C109.667 29.592 109.487 31.14 109.487 32.076C109.487 32.988 109.583 33.444 109.775 33.444C109.919 33.444 110.447 33.216 111.359 32.76L111.791 32.544L112.439 33.804C112.223 33.996 111.935 34.236 111.575 34.524C111.239 34.812 110.591 35.208 109.631 35.712C108.671 36.192 107.807 36.432 107.039 36.432C105.551 36.432 104.687 35.76 104.447 34.416C102.911 35.76 101.519 36.432 100.271 36.432C99.0466 36.432 98.0026 35.952 97.1386 34.992C96.2986 34.032 95.8786 32.52 95.8786 30.456C95.8786 27.24 96.5386 24.708 97.8586 22.86C99.1786 20.988 100.775 20.052 102.647 20.052C103.991 20.052 105.287 20.4 106.535 21.096ZM102.431 33.372C103.007 33.372 103.655 33.144 104.375 32.688C104.543 29.304 105.107 25.956 106.067 22.644C105.347 22.332 104.735 22.176 104.231 22.176C103.367 22.176 102.623 23.028 101.999 24.732C101.399 26.412 101.099 28.272 101.099 30.312C101.099 32.352 101.543 33.372 102.431 33.372ZM115.875 36.432C115.059 36.432 114.375 36.156 113.823 35.604C113.295 35.052 113.031 34.284 113.031 33.3C113.031 32.292 113.619 29.112 114.795 23.76C115.995 18.384 116.595 14.508 116.595 12.132L116.379 10.548C118.251 9.9 120.003 9.576 121.635 9.576C121.875 9.912 121.995 10.5 121.995 11.34C121.995 13.26 121.383 16.98 120.159 22.5C118.959 27.996 118.359 31.2 118.359 32.112C118.359 33 118.467 33.444 118.683 33.444L121.203 32.544L121.851 33.804C121.035 34.452 120.039 35.052 118.863 35.604C117.711 36.156 116.715 36.432 115.875 36.432ZM130.118 22.284C130.118 23.292 129.794 25.032 129.146 27.504C128.498 29.952 128.174 31.56 128.174 32.328C128.174 33.072 128.282 33.444 128.498 33.444C128.642 33.444 129.194 33.216 130.154 32.76L130.586 32.544L131.198 33.804C130.982 33.996 130.694 34.236 130.334 34.524C129.974 34.812 129.302 35.208 128.318 35.712C127.334 36.192 126.422 36.432 125.582 36.432C124.742 36.432 124.082 36.18 123.602 35.676C123.122 35.148 122.882 34.452 122.882 33.588C122.882 32.7 123.182 31.14 123.782 28.908C124.382 26.652 124.682 25.188 124.682 24.516C124.682 23.508 124.37 22.56 123.746 21.672L123.422 21.24L123.458 20.772C124.73 20.412 126.794 20.232 129.65 20.232C129.962 20.592 130.118 21.276 130.118 22.284ZM126.014 16.308C125.534 15.828 125.294 15.192 125.294 14.4C125.294 13.608 125.618 12.912 126.266 12.312C126.938 11.712 127.706 11.412 128.57 11.412C129.434 11.412 130.106 11.652 130.586 12.132C131.066 12.612 131.306 13.248 131.306 14.04C131.306 14.808 130.958 15.492 130.262 16.092C129.59 16.692 128.834 16.992 127.994 16.992C127.154 16.992 126.494 16.764 126.014 16.308ZM142.987 20.484C142.939 21.012 142.723 21.708 142.339 22.572C141.427 22.476 140.527 22.428 139.639 22.428H139.495C138.991 28.356 138.523 32.736 138.091 35.568C137.659 38.4 137.095 40.38 136.399 41.508C135.535 41.484 134.635 41.364 133.699 41.148C132.787 40.956 132.163 40.752 131.827 40.536C132.403 38.76 132.979 36.084 133.555 32.508C134.155 28.932 134.539 25.632 134.707 22.608C134.035 22.656 133.291 22.74 132.475 22.86C132.403 22.548 132.367 22.236 132.367 21.924C132.367 21.588 132.415 21.108 132.511 20.484H134.815C134.863 18.396 134.971 16.812 135.139 15.732C135.427 13.812 136.087 12.312 137.119 11.232C138.175 10.128 139.531 9.576 141.187 9.576C142.243 9.576 143.071 9.816 143.671 10.296C144.295 10.752 144.607 11.484 144.607 12.492C144.607 13.5 144.151 14.808 143.239 16.416C142.327 18 141.127 19.356 139.639 20.484H142.987ZM139.711 18.216C140.647 17.424 141.379 16.548 141.907 15.588C142.435 14.628 142.699 13.764 142.699 12.996C142.699 12.204 142.447 11.808 141.943 11.808C140.887 11.808 140.215 13.02 139.927 15.444C139.831 16.26 139.759 17.184 139.711 18.216ZM147.534 36.432C145.878 36.432 144.582 35.856 143.646 34.704C142.71 33.528 142.242 31.896 142.242 29.808C142.242 27.144 142.95 24.852 144.366 22.932C145.806 21.012 147.786 20.052 150.306 20.052L151.602 20.124C152.01 19.908 152.466 19.8 152.97 19.8C154.866 19.8 155.814 21.588 155.814 25.164C156.798 25.116 157.794 24.984 158.802 24.768L159.378 24.624L159.594 26.028C158.802 26.364 157.734 26.664 156.39 26.928L155.67 27.072C155.214 29.592 154.29 31.788 152.898 33.66C151.506 35.508 149.718 36.432 147.534 36.432ZM149.478 33.336C150.486 33.336 151.386 32.688 152.178 31.392C152.994 30.096 153.558 28.728 153.87 27.288C151.302 27.288 150.018 26.328 150.018 24.408C150.018 23.64 150.174 22.92 150.486 22.248L150.666 21.888C150.57 21.84 150.45 21.816 150.306 21.816C150.162 21.816 150.054 21.84 149.982 21.888C149.382 22.272 148.818 23.172 148.29 24.588C147.762 26.004 147.498 27.624 147.498 29.448C147.498 32.04 148.158 33.336 149.478 33.336ZM157.452 36.108H157.2C157.152 35.916 157.128 35.484 157.128 34.812C157.128 34.116 157.452 32.268 158.1 29.268C158.748 26.268 159.072 24.552 159.072 24.12C159.072 23.376 158.736 22.56 158.064 21.672L157.74 21.24L157.776 20.772C159.072 20.412 161.148 20.232 164.004 20.232C164.292 20.856 164.436 21.732 164.436 22.86C164.7 22.428 165.252 21.852 166.092 21.132C166.932 20.412 167.796 20.052 168.684 20.052C169.98 20.052 170.628 21.18 170.628 23.436C170.508 23.58 170.34 23.772 170.124 24.012C169.932 24.228 169.524 24.54 168.9 24.948C168.3 25.356 167.712 25.608 167.136 25.704C167.112 25.704 166.908 25.38 166.524 24.732C166.14 24.084 165.852 23.76 165.66 23.76C165.06 23.976 164.532 24.336 164.076 24.84C162.972 29.808 162.42 33.024 162.42 34.488C162.42 35.016 162.432 35.388 162.456 35.604C161.616 35.94 159.948 36.108 157.452 36.108ZM170.818 36.108H170.134C170.134 34.98 170.47 32.82 171.142 29.628C171.838 26.436 172.186 24.624 172.186 24.192C172.186 23.4 171.85 22.56 171.178 21.672L170.854 21.24L170.89 20.772C172.186 20.412 174.262 20.232 177.118 20.232C177.43 20.64 177.598 21.384 177.622 22.464C179.71 20.856 181.474 20.052 182.914 20.052C183.778 20.052 184.462 20.352 184.966 20.952C185.494 21.552 185.758 22.308 185.758 23.22C185.758 24.108 185.482 25.656 184.93 27.864C184.378 30.072 184.102 31.56 184.102 32.328C184.102 33.072 184.198 33.444 184.39 33.444C184.534 33.444 185.038 33.216 185.902 32.76L186.334 32.544L186.982 33.804C186.766 33.996 186.478 34.236 186.118 34.524C185.758 34.812 185.086 35.208 184.102 35.712C183.142 36.192 182.278 36.432 181.51 36.432C179.758 36.432 178.882 35.436 178.882 33.444C178.882 32.604 179.146 31.056 179.674 28.8C180.226 26.544 180.502 25.092 180.502 24.444C180.502 23.796 180.298 23.472 179.89 23.472C179.194 23.472 178.342 23.772 177.334 24.372C177.262 24.78 177.022 25.86 176.614 27.612C175.774 31.38 175.354 34.044 175.354 35.604C174.514 35.94 173.002 36.108 170.818 36.108ZM195.579 22.284C195.579 23.292 195.255 25.032 194.607 27.504C193.959 29.952 193.635 31.56 193.635 32.328C193.635 33.072 193.743 33.444 193.959 33.444C194.103 33.444 194.655 33.216 195.615 32.76L196.047 32.544L196.659 33.804C196.443 33.996 196.155 34.236 195.795 34.524C195.435 34.812 194.763 35.208 193.779 35.712C192.795 36.192 191.883 36.432 191.043 36.432C190.203 36.432 189.543 36.18 189.063 35.676C188.583 35.148 188.343 34.452 188.343 33.588C188.343 32.7 188.643 31.14 189.243 28.908C189.843 26.652 190.143 25.188 190.143 24.516C190.143 23.508 189.831 22.56 189.207 21.672L188.883 21.24L188.919 20.772C190.191 20.412 192.255 20.232 195.111 20.232C195.423 20.592 195.579 21.276 195.579 22.284ZM191.475 16.308C190.995 15.828 190.755 15.192 190.755 14.4C190.755 13.608 191.079 12.912 191.727 12.312C192.399 11.712 193.167 11.412 194.031 11.412C194.895 11.412 195.567 11.652 196.047 12.132C196.527 12.612 196.767 13.248 196.767 14.04C196.767 14.808 196.419 15.492 195.723 16.092C195.051 16.692 194.295 16.992 193.455 16.992C192.615 16.992 191.955 16.764 191.475 16.308ZM208.663 21.096C208.711 21.048 208.843 20.736 209.059 20.16C210.187 20.16 211.699 20.496 213.595 21.168C212.995 23.16 212.515 25.248 212.155 27.432C211.795 29.592 211.615 31.14 211.615 32.076C211.615 32.988 211.711 33.444 211.903 33.444C212.047 33.444 212.575 33.216 213.487 32.76L213.919 32.544L214.567 33.804C214.351 33.996 214.063 34.236 213.703 34.524C213.367 34.812 212.719 35.208 211.759 35.712C210.799 36.192 209.935 36.432 209.167 36.432C207.679 36.432 206.815 35.76 206.575 34.416C205.039 35.76 203.647 36.432 202.399 36.432C201.175 36.432 200.131 35.952 199.267 34.992C198.427 34.032 198.007 32.52 198.007 30.456C198.007 27.24 198.667 24.708 199.987 22.86C201.307 20.988 202.903 20.052 204.775 20.052C206.119 20.052 207.415 20.4 208.663 21.096ZM204.559 33.372C205.135 33.372 205.783 33.144 206.503 32.688C206.671 29.304 207.235 25.956 208.195 22.644C207.475 22.332 206.863 22.176 206.359 22.176C205.495 22.176 204.751 23.028 204.127 24.732C203.527 26.412 203.227 28.272 203.227 30.312C203.227 32.352 203.671 33.372 204.559 33.372Z" fill="black"/>
</svg>
