<svg width="122" height="21" viewBox="0 0 122 21" fill="none" xmlns="http://www.w3.org/2000/svg">
<path fill-rule="evenodd" clip-rule="evenodd" d="M11.0238 0.000546408C10.8253 0.0108002 10.653 0.141301 10.5912 0.329596L8.18487 7.51742H0.478046V7.51835C0.271118 7.51835 0.0875989 7.65072 0.0239347 7.84647C-0.0406715 8.04222 0.0286164 8.25663 0.194347 8.37967L6.45458 12.9371L4.04824 20.3757V20.3748C3.98363 20.5724 4.05479 20.7877 4.22333 20.9089C4.39187 21.031 4.61939 21.0301 4.78701 20.9079L11.0472 16.3506L17.3075 20.9079C17.4751 21.0301 17.7026 21.031 17.8712 20.9089C18.0397 20.7877 18.1109 20.5724 18.0463 20.3748L15.6399 12.9361L21.9001 8.37874V8.37967C22.0659 8.25663 22.1352 8.04222 22.0706 7.84647C22.0069 7.65072 21.8234 7.51835 21.6164 7.51835H13.9096L11.5033 0.330528V0.329596C11.4368 0.125453 11.2402 -0.00971475 11.0239 0.000546408H11.0238Z" fill="#FF9900"/>
<path fill-rule="evenodd" clip-rule="evenodd" d="M36.4806 0.000546408C36.2821 0.0108002 36.1098 0.141301 36.048 0.329596L33.6417 7.51742H25.9348V7.51835C25.7279 7.51835 25.5444 7.65072 25.4807 7.84647C25.4161 8.04222 25.4854 8.25663 25.6511 8.37967L31.9114 12.9371L29.505 20.3757V20.3748C29.4404 20.5724 29.5116 20.7877 29.6801 20.9089C29.8487 21.031 30.0762 21.0301 30.2438 20.9079L36.504 16.3506L42.7643 20.9079C42.9319 21.0301 43.1594 21.031 43.3279 20.9089C43.4965 20.7877 43.5676 20.5724 43.503 20.3748L41.0967 12.9361L47.3569 8.37874V8.37967C47.5227 8.25663 47.5919 8.04222 47.5273 7.84647C47.4637 7.65072 47.2802 7.51835 47.0732 7.51835H39.3664L36.9601 0.330528V0.329596C36.8936 0.125453 36.6969 -0.00971475 36.4807 0.000546408H36.4806Z" fill="#FF9900"/>
<path fill-rule="evenodd" clip-rule="evenodd" d="M61.9371 0.000546408C61.7386 0.0108002 61.5663 0.141301 61.5045 0.329596L59.0982 7.51742H51.3914V7.51835C51.1844 7.51835 51.0009 7.65072 50.9373 7.84647C50.8727 8.04222 50.9419 8.25663 51.1077 8.37967L57.3679 12.9371L54.9616 20.3757V20.3748C54.897 20.5724 54.9681 20.7877 55.1367 20.9089C55.3052 21.031 55.5327 21.0301 55.7003 20.9079L61.9606 16.3506L68.2208 20.9079C68.3884 21.0301 68.6159 21.031 68.7845 20.9089C68.953 20.7877 69.0242 20.5724 68.9596 20.3748L66.5532 12.9361L72.8135 8.37874V8.37967C72.9792 8.25663 73.0485 8.04222 72.9839 7.84647C72.9202 7.65072 72.7367 7.51835 72.5298 7.51835H64.8229L62.4166 0.330528V0.329596C62.3501 0.125453 62.1535 -0.00971475 61.9372 0.000546408H61.9371Z" fill="#FF9900"/>
<path fill-rule="evenodd" clip-rule="evenodd" d="M86.4332 0.000546408C86.2347 0.0108002 86.0624 0.141301 86.0006 0.329596L83.5943 7.51742H75.8875V7.51835C75.6805 7.51835 75.497 7.65072 75.4334 7.84647C75.3688 8.04222 75.438 8.25663 75.6038 8.37967L81.864 12.9371L79.4577 20.3757V20.3748C79.3931 20.5724 79.4642 20.7877 79.6328 20.9089C79.8013 21.031 80.0288 21.0301 80.1964 20.9079L86.4567 16.3506L92.7169 20.9079C92.8845 21.0301 93.112 21.031 93.2806 20.9089C93.4491 20.7877 93.5203 20.5724 93.4557 20.3748L91.0493 12.9361L97.3096 8.37874V8.37967C97.4753 8.25663 97.5446 8.04222 97.48 7.84647C97.4163 7.65072 97.2328 7.51835 97.0259 7.51835H89.319L86.9127 0.330528V0.329596C86.8462 0.125453 86.6496 -0.00971475 86.4333 0.000546408H86.4332Z" fill="#FF9900"/>
<path fill-rule="evenodd" clip-rule="evenodd" d="M110.929 0.000546408C110.731 0.0108002 110.559 0.141301 110.497 0.329596L108.09 7.51742H100.384V7.51835C100.177 7.51835 99.9931 7.65072 99.9295 7.84647C99.8648 8.04222 99.9341 8.25663 100.1 8.37967L106.36 12.9371L103.954 20.3757V20.3748C103.889 20.5724 103.96 20.7877 104.129 20.9089C104.297 21.031 104.525 21.0301 104.693 20.9079L110.953 16.3506L117.213 20.9079C117.381 21.0301 117.608 21.031 117.777 20.9089C117.945 20.7877 118.016 20.5724 117.952 20.3748L115.545 12.9361L121.806 8.37874V8.37967C121.971 8.25663 122.041 8.04222 121.976 7.84647C121.912 7.65072 121.729 7.51835 121.522 7.51835H113.815L111.409 0.330528V0.329596C111.342 0.125453 111.146 -0.00971475 110.929 0.000546408H110.929Z" fill="#C4C4C4"/>
</svg>
