<svg width="73" height="96" viewBox="0 0 73 96" fill="none" xmlns="http://www.w3.org/2000/svg">
<path d="M72.0045 88.3012H66.3053V19.3012C66.3053 18.4028 65.606 17.6996 64.7037 17.6996H58.1021L58.106 6.1016C58.106 5.20316 57.4067 4.5 56.5044 4.5H50.606V1.6016C50.606 0.70316 49.9067 0 49.0044 0H23.9064C23.0079 0 22.3048 0.69922 22.3048 1.6016V4.5H16.4064C15.5079 4.5 14.8048 5.19922 14.8048 6.1016V17.7036H8.20316C7.30472 17.7036 6.60156 18.4028 6.60156 19.3052V88.4072H0.601561C0.300781 88.4072 0 88.708 0 89.0088V94.4072C0 94.7079 0.300781 95.0087 0.601561 95.0087H71.9026C72.2033 95.0087 72.5041 94.7079 72.5041 94.4072V89.0088C72.6057 88.6025 72.3049 88.3017 72.0041 88.3017L72.0045 88.3012ZM20.8055 65.6992C20.8055 66 20.5047 66.3008 20.2039 66.3008H15.2039C14.9031 66.3008 14.6023 66 14.6023 65.6992V57.5C14.6023 57.1992 14.9031 56.8984 15.2039 56.8984H20.2039C20.5047 56.8984 20.8055 57.1992 20.8055 57.5V65.6992ZM20.8055 50.0002C20.8055 50.301 20.5047 50.6018 20.2039 50.6018H15.2039C14.9031 50.6018 14.6023 50.301 14.6023 50.0002V41.801C14.6023 41.5002 14.9031 41.1994 15.2039 41.1994H20.2039C20.5047 41.1994 20.8055 41.5002 20.8055 41.801V50.0002ZM20.8055 34.3012C20.8055 34.602 20.5047 34.9028 20.2039 34.9028H15.2039C14.9031 34.9028 14.6023 34.602 14.6023 34.3012V26.102C14.6023 25.8012 14.9031 25.5004 15.2039 25.5004H20.2039C20.5047 25.5004 20.8055 25.8012 20.8055 26.102V34.3012ZM24.7039 16.1022L22.6023 17.2038C22.403 17.3054 22.2038 17.1022 22.2038 16.903L22.6023 14.5046V14.4031L20.9031 12.7039C20.7038 12.5046 20.8015 12.3054 21.1023 12.2039L23.5007 11.8054C23.5007 11.8054 23.6022 11.8054 23.6022 11.7039L24.7038 9.50466C24.8054 9.30544 25.1023 9.30544 25.2038 9.50466L26.3054 11.7039L26.407 11.8054L28.8054 12.1062C29.0046 12.1062 29.1062 12.407 29.0046 12.6062L27.2038 14.3054C27.2038 14.3054 27.1023 14.407 27.2038 14.407L27.6023 16.8054C27.6023 17.0046 27.403 17.2038 27.2038 17.1061L25.0046 16.0045C24.8054 16.0006 24.8054 16.0006 24.7038 16.1022L24.7039 16.1022ZM32.7039 50.7002H27.7039C27.4031 50.7002 27.1023 50.3994 27.1023 50.0986V41.8994C27.1023 41.5987 27.4031 41.2979 27.7039 41.2979H32.7039C33.0046 41.2979 33.3054 41.5987 33.3054 41.8994V50.0986C33.3054 50.3994 33.0046 50.7002 32.7039 50.7002ZM33.3054 57.6025V65.8017C33.3054 66.1025 33.0046 66.4033 32.7039 66.4033H27.7039C27.4031 66.4033 27.1023 66.1025 27.1023 65.8017V57.6025C27.1023 57.3017 27.4031 57.0009 27.7039 57.0009H32.7039C33.0046 56.8994 33.3054 57.2002 33.3054 57.6025ZM32.7039 35.0005H27.7039C27.4031 35.0005 27.1023 34.6997 27.1023 34.3989V26.1997C27.1023 25.899 27.4031 25.5982 27.7039 25.5982H32.7039C33.0046 25.5982 33.3054 25.899 33.3054 26.1997V34.3989C33.3054 34.6997 33.0046 35.0005 32.7039 35.0005ZM34.6062 87.3015C34.6062 87.6023 34.3054 87.9031 34.0046 87.9031H27.1062C26.8054 87.9031 26.5046 87.6023 26.5046 87.3015V73.3015C26.5046 73.0007 26.8054 72.6999 27.1062 72.6999H34.0046C34.3054 72.6999 34.6062 73.0007 34.6062 73.3015V87.3015ZM36.2039 16.1025L34.1023 17.2041C33.903 17.3057 33.7038 17.1025 33.7038 16.9033L34.1023 14.5049V14.4034L32.3054 12.6026C32.1061 12.4033 32.2038 12.2041 32.5046 12.1026L34.903 11.7041C34.903 11.7041 35.0045 11.7041 35.0045 11.6026L36.1061 9.40336C36.2077 9.20414 36.5046 9.20414 36.6061 9.40336L37.7077 11.6026L37.8093 11.7041L40.2077 12.0049C40.4069 12.0049 40.5085 12.3057 40.4069 12.5049L38.6061 14.2041C38.6061 14.2041 38.5046 14.3057 38.6061 14.3057L39.0046 16.7041C39.0046 16.9033 38.8053 17.1025 38.6061 17.0048L36.3053 16.1025C36.3053 16.0009 36.2038 16.0009 36.2038 16.1025H36.2039ZM45.3055 50.7005H40.3055C40.0047 50.7005 39.7039 50.3997 39.7039 50.0989V41.8997C39.7039 41.599 40.0047 41.2982 40.3055 41.2982H45.3055C45.6062 41.2982 45.907 41.599 45.907 41.8997V50.0989C45.907 50.3997 45.6062 50.7005 45.3055 50.7005ZM45.907 57.6028V65.802C45.907 66.1028 45.6062 66.4036 45.3055 66.4036H40.3055C40.0047 66.4036 39.7039 66.1028 39.7039 65.802V57.6028C39.7039 57.302 40.0047 57.0012 40.3055 57.0012H45.3055C45.6062 56.8997 45.907 57.2005 45.907 57.6028ZM45.3055 35.0008H40.3055C40.0047 35.0008 39.7039 34.7 39.7039 34.3992V26.2C39.7039 25.8993 40.0047 25.5985 40.3055 25.5985H45.3055C45.6062 25.5985 45.907 25.8993 45.907 26.2V34.3992C45.907 34.7 45.6062 35.0008 45.3055 35.0008ZM46.5047 87.3018C46.5047 87.6026 46.2039 87.9034 45.9031 87.9034H39.0047C38.7039 87.9034 38.4031 87.6026 38.4031 87.3018V73.3018C38.4031 73.001 38.7039 72.7002 39.0047 72.7002H45.9031C46.2039 72.7002 46.5047 73.001 46.5047 73.3018V87.3018ZM51.8055 12.6998L50.0047 14.399C50.0047 14.399 49.9031 14.5006 50.0047 14.5006L50.4031 16.899C50.4031 17.0982 50.2039 17.2974 50.0047 17.1997L47.8055 16.0981H47.7039L45.6023 17.1997C45.4031 17.3013 45.2039 17.0982 45.2039 16.899L45.6023 14.5006V14.399L43.9031 12.6998C43.7039 12.5006 43.8015 12.3014 44.1023 12.1998L46.5007 11.8014C46.5007 11.8014 46.6023 11.8014 46.6023 11.6998L47.7039 9.5006C47.8054 9.30138 48.1023 9.30138 48.2039 9.5006L49.3055 11.6998L49.407 11.8014L51.8054 12.1021C51.907 12.1998 52.0047 12.5006 51.8054 12.6998H51.8055ZM58.4071 65.6998C58.4071 66.0006 58.1063 66.3014 57.8055 66.3014H52.8055C52.5047 66.3014 52.2039 66.0006 52.2039 65.6998V57.5006C52.2039 57.1998 52.5047 56.899 52.8055 56.899H57.8055C58.1063 56.899 58.4071 57.1998 58.4071 57.5006V65.6998ZM58.4071 50.0008C58.4071 50.3016 58.1063 50.6024 57.8055 50.6024H52.8055C52.5047 50.6024 52.2039 50.3016 52.2039 50.0008V41.8016C52.2039 41.5008 52.5047 41.2 52.8055 41.2H57.8055C58.1063 41.2 58.4071 41.5008 58.4071 41.8016V50.0008ZM58.4071 34.3018C58.4071 34.6026 58.1063 34.9034 57.8055 34.9034H52.8055C52.5047 34.9034 52.2039 34.6026 52.2039 34.3018V26.1026C52.2039 25.8018 52.5047 25.501 52.8055 25.501H57.8055C58.1063 25.501 58.4071 25.8018 58.4071 26.1026V34.3018Z" fill="white"/>
</svg>
